<svg width="49" height="28" viewBox="0 0 49 28" fill="none" xmlns="http://www.w3.org/2000/svg">
<path d="M11.647 2.016C12.727 2.016 13.711 2.172 14.599 2.484C15.487 2.796 16.243 3.24 16.867 3.816C17.515 4.392 18.019 5.076 18.379 5.868C18.739 6.66 18.919 7.536 18.919 8.496C18.919 9.792 18.607 10.884 17.983 11.772C17.383 12.636 16.543 13.308 15.463 13.788C16.855 14.34 17.959 15.204 18.775 16.38C19.615 17.532 20.035 18.84 20.035 20.304C20.035 21.384 19.843 22.356 19.459 23.22C19.075 24.084 18.523 24.828 17.803 25.452C17.083 26.076 16.195 26.556 15.139 26.892C14.107 27.228 12.943 27.396 11.647 27.396C10.495 27.396 9.47495 27.372 8.58695 27.324C7.69895 27.3 6.94295 27.264 6.31895 27.216C5.59895 27.144 4.96295 27.072 4.41095 27V4.284C3.64295 4.164 2.91095 3.948 2.21495 3.636C1.54295 3.324 0.966953 2.832 0.486953 2.16L1.67495 0.935999C2.17895 1.416 2.77895 1.776 3.47495 2.016C4.17095 2.256 4.99895 2.376 5.95895 2.376C6.51095 2.376 6.97895 2.364 7.36295 2.34C7.74695 2.292 8.13095 2.244 8.51495 2.196C8.89895 2.148 9.31895 2.112 9.77495 2.088C10.255 2.04 10.879 2.016 11.647 2.016ZM6.60695 14.976V25.236C7.30295 25.284 8.08295 25.332 8.94695 25.38C9.81095 25.404 10.675 25.416 11.539 25.416C13.555 25.416 15.115 24.96 16.219 24.048C17.347 23.136 17.911 21.84 17.911 20.16C17.911 19.44 17.755 18.768 17.443 18.144C17.155 17.52 16.747 16.98 16.219 16.524C15.691 16.044 15.055 15.672 14.311 15.408C13.567 15.144 12.751 15 11.863 14.976H11.719H6.60695ZM11.539 3.996C10.771 3.996 10.159 4.02 9.70295 4.068C9.24695 4.092 8.85095 4.128 8.51495 4.176C8.20295 4.2 7.90295 4.236 7.61495 4.284C7.32695 4.332 6.99095 4.356 6.60695 4.356V12.996H11.611C13.123 12.996 14.359 12.612 15.319 11.844C16.279 11.052 16.759 9.936 16.759 8.496C16.759 7.056 16.279 5.952 15.319 5.184C14.383 4.392 13.123 3.996 11.539 3.996ZM47.7249 27.072C46.8609 26.904 46.0929 26.652 45.4209 26.316C44.7489 25.98 44.1369 25.608 43.5849 25.2C43.0329 24.792 42.5289 24.36 42.0729 23.904C41.6409 23.448 41.2449 23.004 40.8849 22.572L30.5889 10.62C30.1569 10.14 29.6889 9.552 29.1849 8.856C28.6809 8.16 28.2009 7.476 27.7449 6.804C27.7929 7.428 27.8409 8.088 27.8889 8.784C27.9609 9.456 27.9969 10.068 27.9969 10.62V27H25.8009V2.016H26.4849L43.0809 21.816C43.2489 22.008 43.4289 22.224 43.6209 22.464C43.8129 22.68 44.0409 22.908 44.3049 23.148C44.2569 22.668 44.2209 22.176 44.1969 21.672C44.1729 21.168 44.1609 20.676 44.1609 20.196V2.34H46.3569V24.696C46.6449 24.864 46.9449 25.02 47.2569 25.164C47.5689 25.284 47.9049 25.38 48.2649 25.452L47.7249 27.072Z" fill="#8CD6FF"/>
</svg>
